<?xml version="1.0" standalone="no"?>
<!DOCTYPE svg PUBLIC "-//W3C//DTD SVG 20010904//EN"
 "http://www.w3.org/TR/2001/REC-SVG-20010904/DTD/svg10.dtd">
<svg version="1.0" xmlns="http://www.w3.org/2000/svg"
 width="1280.000000pt" height="395.000000pt" viewBox="0 0 1280.000000 395.000000"
 preserveAspectRatio="xMidYMid meet">
<metadata>
Created by potrace 1.15, written by Peter Selinger 2001-2017
</metadata>
<g transform="translate(0.000000,395.000000) scale(0.100000,-0.100000)"
fill="#3C8600" stroke="none">
<path d="M11227 3680 c-16 -5 -34 -7 -41 -4 -7 3 -25 -7 -40 -21 -23 -22 -27
-32 -25 -75 2 -28 -2 -55 -8 -61 -7 -7 -43 -12 -81 -13 -116 -4 -179 -57 -169
-143 4 -40 2 -49 -20 -69 -28 -26 -43 -23 -43 7 0 12 -13 25 -35 36 -19 9 -35
24 -35 33 0 40 -22 78 -48 85 -15 4 -30 12 -34 18 -12 19 -84 12 -114 -12 -15
-12 -29 -19 -31 -17 -3 2 14 32 36 65 54 79 53 97 -1 111 -24 6 -47 12 -53 14
-29 9 -130 -77 -141 -121 -4 -12 -11 -23 -18 -24 -6 0 -27 -3 -46 -5 -19 -3
-60 -6 -90 -8 -78 -3 -78 -4 -86 -28 -3 -13 -15 -43 -26 -66 -11 -24 -17 -50
-14 -57 2 -7 -1 -18 -7 -24 -19 -19 1 -25 96 -29 121 -5 127 -7 83 -37 -20
-14 -41 -25 -46 -25 -16 0 -23 -22 -23 -72 1 -40 6 -55 29 -79 15 -16 34 -29
41 -29 21 0 15 -14 -9 -25 -13 -6 -32 -27 -43 -48 l-20 -38 25 -21 c20 -16 34
-19 70 -15 25 3 53 9 63 12 16 7 19 -3 17 -52 -1 -10 -27 -9 -58 1 -19 6 -25
2 -38 -30 -20 -47 -12 -104 21 -170 13 -27 23 -49 21 -51 -7 -7 -94 107 -111
147 -10 25 -29 60 -42 78 -21 28 -29 32 -72 32 -39 0 -51 -4 -64 -22 -12 -19
-24 -23 -68 -24 -71 -2 -139 -14 -139 -25 0 -5 -7 -9 -15 -9 -8 0 -15 -5 -15
-11 0 -7 -6 -17 -14 -23 -8 -6 -16 -20 -18 -31 -3 -17 7 -21 96 -32 55 -7 111
-17 125 -22 l26 -9 -32 -12 c-35 -13 -67 -54 -59 -75 9 -26 56 -47 118 -56 35
-4 104 -13 153 -19 116 -14 154 -27 187 -63 l28 -29 -28 -39 c-25 -36 -30 -39
-77 -39 -55 0 -117 -19 -145 -43 -11 -9 -33 -23 -49 -32 -17 -8 -35 -24 -40
-34 -6 -10 -24 -24 -41 -31 -26 -11 -30 -18 -30 -50 0 -29 5 -39 20 -43 10 -3
24 1 31 9 6 8 18 14 25 14 8 0 14 11 14 26 0 16 5 24 13 21 6 -2 11 -10 9 -17
-2 -9 12 -10 52 -7 40 4 58 2 66 -9 11 -12 6 -13 -31 -8 -47 6 -113 -7 -143
-29 -17 -12 -17 -18 -7 -50 15 -45 27 -53 49 -34 9 9 29 19 45 22 24 7 27 5
27 -20 0 -20 -17 -44 -67 -94 -83 -82 -145 -113 -234 -119 l-66 -4 -20 38
c-15 30 -30 43 -63 54 -59 21 -67 45 -12 37 22 -4 47 -10 55 -13 19 -7 57 30
57 56 0 22 -34 44 -56 36 -20 -8 -17 4 8 31 17 18 20 28 12 40 -13 21 -74 30
-74 12 0 -10 -3 -10 -12 -1 -21 21 -33 13 -63 -38 -16 -27 -32 -50 -36 -50 -3
0 -9 19 -12 42 -5 34 -2 46 14 61 10 10 19 21 19 26 0 14 -36 41 -54 41 -13 0
-16 5 -11 18 29 70 29 70 10 91 -20 23 -74 28 -93 9 -24 -24 -12 11 23 63 19
30 35 61 35 71 0 14 6 16 33 11 17 -3 36 -10 41 -14 6 -5 14 -9 18 -9 12 0 2
58 -13 77 -31 40 -55 63 -66 63 -6 0 -13 4 -15 10 -1 5 -24 13 -49 16 -40 5
-60 0 -155 -40 -60 -25 -117 -46 -126 -46 -13 0 -9 13 18 69 19 37 36 77 39
87 2 11 9 34 14 53 13 42 1 61 -40 61 -16 0 -29 5 -29 10 0 6 -23 9 -52 8 -57
-2 -118 -36 -118 -66 0 -14 -2 -14 -17 1 -15 15 -16 21 -5 38 19 29 -4 73 -41
77 -15 2 -27 9 -27 16 0 22 -27 50 -51 52 -13 1 -32 5 -41 9 -35 14 -72 -9
-100 -63 -14 -29 -29 -48 -33 -42 -11 17 -26 11 -56 -21 l-29 -31 0 30 c0 39
-57 87 -90 77 -12 -4 -26 0 -36 9 -8 9 -19 16 -24 16 -11 0 -35 -41 -32 -52 4
-15 -7 -8 -40 25 -53 54 -79 67 -130 67 -69 0 -76 -21 -27 -73 22 -21 39 -46
39 -54 0 -13 -3 -13 -15 -3 -19 16 -82 17 -97 2 -9 -9 -5 -21 20 -54 73 -98
82 -115 76 -132 -4 -10 -13 -15 -22 -11 -12 4 -14 -2 -9 -34 l5 -40 -27 20
c-36 27 -124 35 -176 17 -23 -8 -39 -20 -37 -27 1 -7 -3 -20 -9 -27 -9 -11 -9
-18 -1 -26 6 -6 8 -16 6 -23 -10 -26 115 -115 162 -115 7 0 24 -4 39 -10 l25
-10 -38 -34 c-26 -24 -58 -39 -102 -51 -68 -17 -118 -54 -145 -106 -21 -40
-43 -108 -37 -114 11 -10 88 -4 112 10 40 23 42 18 17 -27 -19 -33 -23 -53
-20 -86 3 -24 11 -46 19 -49 17 -6 18 -18 1 -35 -7 -7 -19 -28 -26 -45 -11
-27 -19 -33 -45 -33 -44 0 -197 44 -231 66 -22 15 -49 19 -115 20 -47 1 -97 6
-112 12 -24 10 -26 14 -18 42 12 40 -14 121 -43 140 -24 15 -57 22 -101 22
-29 1 -74 -37 -89 -73 -4 -10 -16 -3 -39 24 -36 41 -70 61 -116 72 l-29 6 5
68 c5 73 -7 105 -55 147 -16 14 -26 37 -33 79 -10 59 -53 137 -74 134 -6 -1
-24 3 -39 9 -38 16 -45 15 -55 -5 -10 -20 -3 -89 21 -198 21 -96 31 -225 17
-225 -5 0 -10 4 -10 9 0 6 -18 31 -40 57 -47 54 -140 189 -140 203 0 11 -85
60 -115 67 -55 13 -155 -5 -155 -28 0 -13 -38 -9 -44 5 -5 10 -7 10 -12 0 -11
-24 -26 -14 -20 13 5 19 0 35 -19 60 -28 37 -50 36 -41 -1 3 -13 2 -27 -4 -30
-5 -3 -10 -30 -10 -58 l0 -52 -20 33 c-11 17 -25 32 -30 32 -6 0 -24 14 -40
32 -24 26 -31 29 -44 18 -31 -24 -19 -58 27 -81 64 -32 77 -47 67 -74 -6 -15
-4 -29 5 -42 16 -23 11 -33 -17 -33 -10 0 -18 -6 -18 -13 0 -21 -37 -46 -60
-40 -15 4 -19 10 -14 22 19 43 16 96 -9 132 -19 28 -22 40 -14 48 14 14 -6 31
-36 31 -10 0 -32 7 -48 16 -52 26 -63 14 -56 -64 l7 -68 -40 -23 c-23 -13 -51
-33 -63 -47 l-22 -23 -36 34 c-44 41 -98 75 -120 75 -9 0 -19 7 -23 15 -11 30
-116 13 -178 -29 -31 -21 -77 -37 -103 -36 -5 0 -37 5 -70 11 -75 15 -128 6
-159 -28 l-24 -25 -30 22 c-26 20 -34 21 -63 11 -17 -6 -33 -11 -34 -11 -1 0
-2 12 -2 27 0 14 8 36 19 47 11 12 28 38 39 59 21 39 17 58 -19 99 -8 10 -12
27 -9 39 6 21 -18 67 -47 94 -6 6 -24 30 -40 54 -27 42 -30 43 -42 26 -8 -10
-14 -34 -14 -52 l0 -33 -20 20 c-11 11 -26 20 -34 20 -17 0 -40 -81 -31 -110
7 -22 6 -22 -41 -15 -27 3 -53 11 -58 16 -6 5 -25 9 -43 9 -42 0 -59 -30 -45
-81 5 -19 5 -44 1 -57 -9 -23 1 -56 45 -155 30 -66 33 -85 12 -67 -9 7 -33 10
-62 7 -42 -5 -52 -2 -80 22 -42 38 -107 48 -163 25 -22 -9 -41 -20 -41 -24 0
-5 28 -22 63 -38 49 -23 67 -39 86 -71 12 -23 21 -43 20 -44 -2 -1 -15 -8 -28
-15 -20 -12 -26 -11 -45 6 -66 61 -172 82 -260 52 -43 -14 -115 -81 -117 -108
-1 -9 -3 -31 -4 -47 -2 -17 3 -39 11 -50 14 -18 14 -18 41 1 69 50 236 114
299 114 l42 0 -4 -37 c-3 -21 -14 -53 -24 -71 -26 -43 -25 -51 3 -48 40 4 66
26 77 64 17 61 23 67 53 47 23 -15 26 -23 26 -80 0 -89 -17 -106 -134 -129
-50 -9 -110 -22 -135 -27 -51 -10 -327 -54 -410 -64 -30 -4 -62 -9 -70 -10 -8
-1 -43 -6 -78 -10 -57 -6 -65 -5 -84 15 -14 15 -18 30 -15 48 21 104 46 171
69 189 7 5 32 15 56 21 l44 10 70 -61 c67 -57 72 -59 84 -42 26 35 17 79 -23
118 -20 20 -42 37 -49 37 -22 0 -28 23 -9 37 11 7 31 13 46 13 57 0 207 58
209 81 0 12 -73 39 -91 34 -43 -14 -15 8 46 35 36 16 65 33 65 38 0 16 -80 32
-106 22 -18 -7 -24 -6 -24 4 0 8 8 17 18 21 13 6 9 10 -20 20 -74 27 -103 27
-128 0 -17 -18 -30 -23 -47 -19 -18 5 -32 -1 -54 -22 -16 -15 -29 -36 -29 -46
0 -9 -9 -22 -20 -28 -17 -9 -20 -8 -20 9 0 11 -11 32 -24 48 -17 20 -23 36
-19 56 8 43 -5 90 -35 126 -28 34 -28 34 -60 17 -40 -21 -68 -74 -82 -160 -7
-36 -15 -66 -19 -66 -20 1 -32 23 -41 76 -14 76 -26 108 -66 169 -21 32 -45
55 -66 63 -18 7 -41 18 -52 23 -20 12 -103 3 -126 -12 -12 -8 4 -28 77 -97 93
-89 187 -191 181 -198 -2 -2 -22 3 -43 11 -22 8 -56 14 -75 15 -44 0 -110 -18
-110 -31 0 -5 15 -25 33 -43 30 -32 136 -76 181 -76 27 0 65 -22 59 -35 -2 -8
5 -19 17 -25 21 -11 21 -12 4 -25 -14 -10 -18 -25 -16 -66 2 -57 12 -69 54
-69 20 0 29 -6 33 -22 14 -68 9 -94 -31 -133 -20 -20 -34 -37 -33 -39 2 -1 19
-13 37 -25 17 -12 37 -31 42 -41 9 -17 4 -23 -39 -44 l-48 -25 -24 25 c-12 13
-27 23 -33 21 -5 -2 -22 -25 -36 -53 -21 -38 -32 -49 -53 -50 -14 -1 -37 -8
-50 -17 -13 -9 -42 -17 -63 -19 -32 -2 -40 -7 -42 -25 -4 -28 -22 -31 -22 -3
0 33 -20 64 -57 90 -34 23 -36 24 -49 5 -16 -22 -17 -33 -4 -95 11 -56 -4 -75
-20 -26 -6 19 -36 60 -66 90 -61 61 -97 72 -189 62 -71 -7 -75 -19 -24 -63 80
-70 149 -136 149 -142 0 -4 -44 -17 -98 -30 -93 -22 -100 -22 -130 -7 -34 18
-96 20 -157 6 l-40 -9 30 25 c17 13 33 24 37 24 4 0 20 20 37 46 33 48 40 102
20 147 -12 26 -53 50 -107 61 -17 4 -32 12 -32 17 0 12 96 11 142 -1 33 -10
42 -8 78 16 22 15 40 28 40 30 0 1 -4 14 -10 28 -8 22 -6 27 13 37 34 18 77
61 77 78 0 9 16 27 36 41 44 29 54 54 42 100 -13 45 -14 46 -35 27 -23 -20
-212 -127 -225 -127 -6 0 5 19 24 43 52 64 60 90 47 143 -6 24 -17 44 -25 44
-17 0 -96 -103 -126 -165 -37 -76 -74 -130 -105 -155 l-28 -22 -5 69 c-7 95
-41 147 -113 168 -28 8 -54 15 -58 15 -3 0 -9 -18 -13 -41 -6 -37 -1 -51 54
-150 56 -102 71 -151 52 -163 -4 -2 -14 15 -21 39 -20 69 -86 119 -143 109
-53 -11 -70 -23 -63 -45 7 -21 10 -21 -66 -5 -30 7 -41 -15 -33 -62 5 -26 4
-26 -21 8 -40 54 -77 72 -146 73 -40 0 -64 -4 -69 -13 -5 -8 -17 -10 -34 -6
-43 11 -29 -36 19 -62 16 -9 5 -11 -53 -12 -59 0 -80 -4 -105 -22 -52 -35 -67
-59 -67 -110 0 -43 2 -48 23 -49 42 -2 72 3 100 17 15 8 62 24 105 34 l77 20
21 -26 c22 -27 39 -30 129 -22 29 3 30 2 35 -52 7 -72 14 -82 59 -78 29 2 35
-1 33 -15 -2 -9 2 -17 8 -17 5 0 10 -9 10 -21 0 -11 5 -29 10 -40 13 -23 -2
-26 -20 -4 -7 8 -16 15 -21 15 -21 0 -6 -29 36 -70 25 -24 45 -48 45 -52 0 -4
-21 -19 -48 -34 -144 -81 -198 -114 -309 -186 -113 -74 -153 -88 -139 -51 4 9
-8 29 -29 52 -46 46 -126 64 -213 47 -53 -11 -60 -16 -104 -74 -26 -34 -50
-57 -53 -52 -3 6 -3 15 0 21 4 6 8 25 10 42 3 40 -39 106 -69 108 -58 3 -112
-23 -138 -67 -31 -53 -43 -38 -44 57 -1 46 -2 91 -3 99 -2 28 -99 57 -132 39
-16 -8 -25 -7 -40 7 -18 16 -19 15 -29 -10 -15 -39 -14 -40 35 -166 25 -63 45
-118 45 -122 0 -14 -60 -8 -93 9 -18 9 -41 17 -52 19 -11 1 -56 13 -100 27
-175 55 -246 59 -321 20 -49 -25 -63 -52 -54 -104 4 -22 10 -42 12 -45 3 -2
20 2 39 10 19 7 47 16 63 20 23 6 27 4 23 -8 -13 -32 31 -40 213 -37 96 1 183
-1 192 -4 16 -6 15 -11 -12 -49 -24 -33 -29 -48 -24 -73 7 -37 74 -110 109
-119 14 -3 25 -9 26 -13 0 -3 2 -21 4 -40 5 -52 20 -61 118 -64 48 -1 87 -6
87 -10 0 -5 13 -6 30 -2 19 4 30 3 30 -4 0 -14 26 -13 71 3 41 14 63 5 83 -35
19 -39 36 -35 36 9 0 44 -19 66 -63 78 -36 8 -17 24 30 24 17 0 34 4 37 9 9
14 -4 41 -19 41 -7 0 -23 9 -36 19 l-24 19 49 22 c30 12 60 19 75 15 47 -10
143 22 175 58 81 92 121 126 236 202 146 97 281 172 365 202 33 12 130 36 215
53 170 34 252 54 320 76 58 20 232 56 238 49 8 -8 -47 -25 -81 -25 -51 0 -227
-73 -274 -114 -40 -35 -103 -135 -103 -163 0 -24 29 -45 70 -50 30 -4 53 1
102 25 74 36 79 40 139 112 48 56 89 128 89 154 0 8 14 19 30 25 19 6 30 6 30
0 0 -10 -25 -58 -59 -114 -10 -16 -20 -49 -23 -73 -5 -37 -3 -46 20 -67 31
-28 52 -31 90 -11 39 20 68 55 81 98 15 46 30 57 38 29 5 -21 18 -26 60 -22
14 1 28 -8 39 -24 12 -19 22 -24 38 -19 18 5 16 1 -11 -27 -33 -35 -72 -111
-73 -141 0 -24 54 -23 95 1 53 31 94 148 63 179 -7 7 -8 12 -2 12 20 0 31 -16
38 -51 3 -20 17 -52 29 -70 37 -57 172 -112 192 -79 3 5 14 10 25 10 10 0 20
7 24 15 3 8 12 15 21 15 23 0 18 26 -10 55 -14 14 -25 25 -23 25 2 0 21 -7 43
-15 52 -19 99 -19 135 0 38 20 38 31 -1 54 -36 22 -23 31 46 31 24 0 46 4 49
9 11 17 -55 80 -90 87 -46 8 -50 19 -13 35 30 12 30 13 13 27 -37 28 -100 52
-129 49 -20 -1 -30 3 -31 13 0 8 -2 25 -2 38 -2 18 -8 22 -37 22 -20 0 -49 10
-71 25 -40 27 -117 34 -171 15 -26 -9 -27 -9 -9 5 11 8 25 15 32 15 7 0 34 19
61 42 94 81 205 114 548 163 61 9 160 25 220 36 208 37 320 58 357 64 l38 6
-7 -31 c-3 -17 -1 -41 5 -53 5 -12 13 -30 16 -41 6 -18 7 -18 25 -2 14 13 18
26 14 49 -3 23 1 40 17 59 19 25 24 26 43 16 30 -16 49 -19 63 -7 7 5 27 6 50
1 31 -6 40 -13 42 -32 7 -44 49 -74 89 -64 21 6 53 67 53 102 0 35 11 52 35
52 12 0 28 7 35 15 14 17 62 20 91 5 15 -9 17 -15 9 -30 -8 -15 -6 -20 9 -25
10 -3 25 -3 33 0 9 4 19 -4 26 -20 12 -26 28 -33 34 -14 2 7 12 7 31 -2 24
-11 33 -10 63 6 19 10 34 25 34 33 0 10 5 12 18 6 9 -4 36 -9 60 -12 32 -3 42
-1 42 11 0 32 -22 74 -48 90 l-27 18 25 -5 c65 -12 101 -25 128 -45 17 -12 44
-23 60 -25 16 -2 34 -6 39 -9 6 -4 16 0 23 8 14 16 56 20 64 6 3 -5 -1 -22 -9
-37 -19 -38 -19 -74 1 -103 16 -22 21 -23 85 -17 l68 6 30 -97 c16 -54 31
-123 34 -153 12 -122 60 -176 108 -124 13 13 18 24 13 24 -5 0 -2 5 6 10 8 5
16 17 17 27 11 114 10 125 -14 168 -32 58 -97 121 -139 137 -37 13 -44 25 -16
30 16 4 104 -46 227 -128 l50 -33 24 24 c23 23 24 24 8 58 -20 41 -71 89 -122
112 -51 25 -43 33 23 23 76 -12 123 -26 407 -118 132 -43 303 -94 380 -115 91
-24 148 -44 163 -58 19 -18 36 -22 85 -22 34 -1 130 -15 212 -32 83 -18 195
-37 250 -43 134 -14 145 -17 139 -35 -4 -8 -14 -15 -24 -15 -24 0 -31 -34 -16
-78 11 -31 18 -38 46 -40 30 -3 32 -6 27 -32 -4 -18 -1 -32 8 -40 8 -7 15 -18
15 -25 0 -6 12 -17 26 -23 l25 -12 -30 -31 c-37 -36 -47 -69 -34 -112 7 -28
13 -32 47 -35 73 -6 113 18 141 86 8 17 18 32 23 32 23 0 164 -183 183 -238
13 -39 32 -46 55 -21 20 22 32 113 15 123 -6 4 -11 15 -11 25 0 10 -11 30 -25
45 -29 31 -18 34 19 5 31 -25 76 -19 76 9 -1 32 -55 97 -100 120 -58 29 -142
30 -188 2 -18 -11 -35 -20 -38 -20 -3 0 -4 19 -2 42 l3 43 50 6 c91 12 248 80
261 114 6 15 -17 45 -35 45 -6 0 -11 5 -11 10 0 6 20 10 45 10 79 0 105 23
105 92 0 22 8 32 38 47 20 10 72 46 115 80 85 65 77 64 187 36 30 -7 48 -18
55 -33 9 -20 17 -22 65 -21 78 1 160 -30 209 -80 37 -38 60 -47 101 -41 8 1
18 7 22 13 5 9 40 0 120 -27 62 -22 122 -45 133 -53 19 -13 19 -13 -3 -13 -26
0 -62 -17 -62 -29 0 -17 49 -30 80 -21 23 7 30 6 27 -3 -2 -7 -13 -13 -25 -15
-21 -3 -21 -5 -5 -28 16 -24 16 -24 -11 -14 -15 5 -45 10 -67 10 -32 0 -46 -7
-79 -40 -22 -22 -40 -45 -40 -51 0 -19 61 -89 77 -89 8 0 28 -9 44 -21 59 -42
155 -34 211 18 l26 25 16 -31 c16 -31 16 -31 -9 -31 -39 0 -84 -26 -143 -84
-58 -55 -73 -79 -97 -151 -13 -36 -14 -50 -4 -61 6 -8 8 -14 5 -14 -15 0 31
-63 51 -71 44 -17 110 18 173 91 36 42 58 59 73 57 13 -1 25 6 32 20 12 24 25
21 25 -5 0 -14 58 -176 81 -224 15 -32 86 -84 134 -97 36 -10 42 -9 69 17 46
42 56 56 50 72 -10 27 -11 74 -1 117 11 54 -6 142 -34 175 l-21 23 21 3 c12 2
33 -6 48 -18 23 -18 29 -19 41 -7 17 18 23 86 9 112 -6 11 -10 25 -9 32 4 18
-81 71 -134 84 -90 20 -152 22 -225 4 -55 -14 -72 -15 -84 -5 -8 7 -12 16 -9
21 3 5 72 9 153 9 173 0 208 5 223 33 9 17 7 24 -12 39 -12 10 -31 18 -41 18
-10 0 -19 7 -19 15 0 9 -9 15 -23 15 -13 0 -32 9 -42 20 -10 11 -28 20 -41 20
-13 0 -26 4 -29 10 -3 5 -28 10 -55 10 -41 0 -55 -5 -85 -31 -40 -36 -51 -35
-30 1 16 28 23 43 29 64 3 7 22 17 43 20 21 4 173 38 338 76 165 38 333 75
373 81 78 13 65 16 204 -52 25 -13 196 -31 209 -23 7 4 9 3 5 -4 -10 -17 -62
-24 -99 -14 -39 11 -189 -1 -247 -20 -55 -18 -96 -49 -129 -100 -30 -45 -31
-49 -20 -97 12 -57 20 -62 102 -64 90 -2 161 42 254 156 77 96 89 107 115 107
22 0 21 0 -4 -28 -72 -78 -87 -187 -34 -256 43 -57 62 -63 113 -35 24 13 43
27 43 31 0 5 7 8 15 8 20 0 45 52 48 100 1 22 5 40 8 40 3 0 19 -11 35 -25 16
-14 42 -32 57 -40 27 -13 31 -13 63 13 19 15 34 30 34 35 0 4 9 16 20 27 11
11 18 25 16 32 -3 7 -7 25 -10 41 l-7 27 38 -15 c59 -25 114 -12 152 35 19 24
27 41 21 45 -6 4 -8 14 -5 24 3 11 -7 29 -30 51 -39 38 -37 50 7 50 24 0 39
-9 65 -40 35 -41 108 -80 149 -80 14 0 40 15 60 33 29 26 36 40 36 70 l0 38
32 -26 c67 -55 132 -68 175 -34 16 13 30 29 30 35 1 6 23 26 51 45 33 22 51
43 56 61 3 18 14 30 27 33 91 21 111 22 144 13 20 -5 48 -19 63 -29 15 -11 62
-26 109 -34 116 -21 205 -45 213 -58 4 -7 8 -25 8 -41 0 -33 77 -174 103 -187
16 -9 17 0 17 131 0 138 0 140 -22 141 l-23 0 23 16 c21 15 22 20 22 188 0
190 1 188 -60 173 -19 -4 -68 -12 -108 -17 -41 -5 -81 -16 -90 -24 -16 -15
-289 -104 -372 -122 -31 -7 -33 -6 -21 9 11 13 12 24 2 56 -14 47 -19 51 -73
55 -80 6 -133 -19 -227 -108 -95 -90 -140 -104 -59 -19 76 79 92 113 84 176
-3 29 -12 53 -21 58 -8 5 -15 19 -15 32 0 45 -74 126 -155 169 l-30 16 51 1
51 0 -3 47 c-1 25 -8 49 -14 53 -14 8 48 20 107 20 44 0 52 6 59 43 3 19 -4
27 -40 45 -54 28 -120 28 -177 2 -45 -20 -114 -27 -123 -11 -6 10 127 71 155
71 10 0 22 7 27 16 7 13 26 16 98 15 84 -1 415 -30 423 -37 1 -1 -4 -13 -13
-26 -28 -40 -16 -98 21 -98 7 0 26 26 41 58 l27 57 110 6 c61 3 111 5 113 4 1
-1 4 -16 6 -34 4 -40 11 -47 56 -58 44 -12 89 1 132 38 l33 27 3 513 c1 342
-1 509 -8 499 -5 -8 -10 -25 -10 -37 0 -16 -6 -23 -19 -23 -17 0 -18 4 -10 38
12 54 13 54 -28 46 -36 -6 -90 -36 -105 -59 -4 -5 -8 9 -8 33 0 41 -1 42 -34
42 -19 0 -38 -4 -41 -10 -9 -15 -25 -12 -25 4 0 8 -15 31 -34 50 -24 26 -42
36 -65 36 -22 0 -31 -5 -31 -16 0 -13 -3 -14 -15 -4 -8 6 -19 9 -24 6 -13 -8
-2 -75 18 -106 15 -23 15 -24 -4 -15 -45 19 -83 17 -104 -4 l-21 -21 20 -28
c12 -16 35 -37 53 -47 l31 -19 -62 -14 c-36 -8 -66 -20 -69 -28 -6 -17 23 -54
43 -54 31 0 21 -20 -15 -30 -21 -5 -44 -17 -51 -25 -11 -14 -16 -14 -39 2 -32
21 -114 23 -158 4 -29 -12 -33 -18 -33 -50 0 -20 9 -47 20 -61 11 -14 20 -29
20 -34 0 -21 102 -76 140 -76 22 0 75 -19 69 -25 -2 -2 -44 -9 -92 -15 -74
-10 -94 -10 -133 4 -43 15 -50 14 -105 -4 -32 -11 -73 -20 -90 -20 -18 0 -40
-7 -49 -15 -14 -13 -16 -9 -16 39 -2 103 -10 122 -60 147 -48 23 -62 18 -65
-21 -1 -8 -2 -22 -3 -30 -1 -10 -11 -15 -30 -14 -19 0 -40 -11 -64 -33 -39
-37 -52 -32 -52 24 0 36 -34 66 -88 78 -22 4 -32 11 -28 20 3 8 -2 19 -10 25
-8 7 -14 18 -14 25 0 7 -10 19 -22 28 -22 14 -19 15 50 16 65 0 78 3 110 28
29 21 48 28 92 29 72 2 120 26 120 60 0 13 -7 27 -15 30 -8 4 -13 9 -10 14 2
4 -8 17 -22 30 -36 31 -150 40 -219 16 -54 -18 -68 -20 -59 -7 11 18 120 65
275 118 25 9 61 32 83 55 70 73 42 131 -70 145 -58 6 -103 -10 -158 -58 -44
-39 -121 -154 -146 -219 -9 -25 -24 -46 -33 -48 -16 -3 -15 -1 50 146 13 28
19 85 15 147 -1 21 -48 56 -73 54 -7 0 -26 -5 -41 -9z m-839 -372 c8 -10 12
-18 8 -18 -14 0 -63 65 -58 78 3 10 10 6 20 -14 8 -16 21 -37 30 -46z m90
-112 c7 -22 10 -42 7 -44 -5 -5 -63 84 -71 111 -4 12 2 27 18 44 l23 25 6 -49
c4 -26 11 -66 17 -87z m-82 32 c11 -13 26 -32 34 -42 15 -19 14 -19 -20 -1
-19 10 -48 28 -63 41 l-29 24 29 0 c18 0 37 -9 49 -22z m1909 -48 c3 -5 1 -10
-4 -10 -6 0 -11 5 -11 10 0 6 2 10 4 10 3 0 8 -4 11 -10z m90 -10 c-5 -14 -2
-20 9 -20 9 0 16 -9 16 -20 0 -27 -9 -25 -53 14 -39 35 -37 44 11 45 19 1 22
-3 17 -19z m-1495 -30 c0 -5 -7 -10 -16 -10 -8 0 -12 5 -9 10 3 6 10 10 16 10
5 0 9 -4 9 -10z m-105 -32 c0 -18 -4 -36 -10 -40 -13 -10 -55 -10 -55 -1 0 5
60 73 64 73 1 0 1 -15 1 -32z m-333 -65 c3 -21 3 -40 1 -42 -2 -3 -18 10 -36
27 -27 27 -30 34 -17 42 31 20 48 11 52 -27z m-52 -19 c37 -32 33 -41 -9 -20
-16 9 -45 16 -63 17 l-33 1 30 13 c40 19 39 19 75 -11z m486 11 c-21 -16 -56
-20 -56 -7 0 16 13 22 44 22 29 -1 30 -1 12 -15z m-171 -85 c-10 -11 -22 -17
-27 -14 -12 8 11 34 30 34 13 0 12 -3 -3 -20z m1945 -16 c0 -8 -5 -12 -10 -9
-6 4 -8 11 -5 16 9 14 15 11 15 -7z m-1925 -32 c-5 -14 -7 -14 -15 -2 -5 9 -4
20 3 28 14 17 22 0 12 -26z m1825 8 c11 -7 2 -10 -33 -10 -30 0 -46 4 -42 10
8 13 55 13 75 0z m-1750 -12 c0 -7 -5 -20 -10 -28 -8 -12 -10 -9 -10 13 0 15
5 27 10 27 6 0 10 -6 10 -12z m284 -39 c-7 -12 -31 -11 -39 1 -4 6 -1 18 6 26
12 14 14 14 26 -2 7 -9 10 -21 7 -25z m1421 2 c-20 -12 -32 -14 -37 -7 -11 17
1 26 35 26 l32 0 -30 -19z m-1370 -51 c17 -34 18 -40 6 -40 -16 0 -71 51 -65
61 12 19 44 8 59 -21z m-725 6 c0 -19 -14 -28 -34 -20 -13 5 -14 9 -5 20 15
18 39 18 39 0z m427 8 c-3 -3 -12 -4 -19 -1 -8 3 -5 6 6 6 11 1 17 -2 13 -5z
m1148 -28 c-35 -45 -49 -96 -32 -113 21 -21 90 -26 129 -10 20 8 48 32 64 53
16 20 43 53 61 73 26 29 31 32 26 14 -3 -15 -1 -23 7 -23 8 0 10 -8 6 -24 -4
-15 0 -28 9 -36 8 -7 15 -18 14 -24 -6 -52 23 -96 63 -96 35 0 101 37 151 84
29 28 47 40 50 32 3 -7 22 -21 42 -30 25 -12 35 -22 31 -32 -4 -10 5 -21 24
-32 16 -9 28 -21 27 -27 -6 -15 -431 -9 -652 9 -104 9 -217 16 -250 17 -59 1
-60 1 -21 10 60 14 92 49 106 114 5 26 13 32 75 52 95 30 101 29 70 -11z
m-690 2 c-7 -23 -32 -48 -47 -48 -4 0 -8 11 -8 24 0 21 18 35 58 45 2 1 0 -9
-3 -21z m-853 -68 c-15 -28 -34 -50 -43 -50 -9 0 -19 -7 -23 -15 -3 -8 -12
-15 -20 -15 -8 0 -16 -6 -19 -12 -2 -7 -7 -10 -11 -7 -10 9 113 149 130 149
10 0 7 -13 -14 -50z m-1497 -122 c-10 -95 -8 -175 5 -217 8 -28 7 -38 -7 -53
-20 -22 -43 -24 -43 -3 0 9 -11 20 -24 25 -36 13 -38 51 -4 72 16 10 28 22 28
28 0 14 -69 80 -84 80 -8 0 -16 6 -19 13 -3 9 -9 8 -23 -5 -22 -19 -50 -9 -41
15 5 14 83 37 130 37 28 1 71 36 61 51 -5 9 11 28 25 29 1 0 0 -33 -4 -72z
m2609 46 c9 -24 2 -26 -12 -4 -7 11 -8 20 -3 20 5 0 12 -7 15 -16z m-873 -14
c29 -16 23 -31 -8 -24 -37 9 -44 14 -38 25 8 12 22 11 46 -1z m759 -20 c0 -5
-7 -10 -15 -10 -8 0 -15 5 -15 10 0 6 7 10 15 10 8 0 15 -4 15 -10z m-1102
-26 c31 -21 28 -29 -13 -29 -25 0 -35 4 -35 16 0 31 16 36 48 13z m847 6 c3
-5 1 -10 -4 -10 -6 0 -11 5 -11 10 0 6 2 10 4 10 3 0 8 -4 11 -10z m-9 -187
c-10 -10 -19 5 -10 18 6 11 8 11 12 0 2 -7 1 -15 -2 -18z m298 1 c6 -15 -19
-38 -32 -30 -5 3 -12 14 -15 25 -3 14 1 19 19 19 12 0 25 -6 28 -14z m-514
-18 c0 -13 2 -31 5 -38 4 -10 -7 -19 -37 -28 -24 -8 -49 -18 -56 -24 -8 -5 1
18 20 52 35 65 68 84 68 38z m-4590 -82 c22 -9 40 -19 40 -23 0 -9 -54 -61
-63 -61 -4 0 -2 9 5 20 16 25 3 38 -22 22 -18 -11 -20 -9 -20 18 0 23 -3 28
-17 24 -15 -5 -16 -4 -3 5 20 15 33 14 80 -5z m2604 -9 c-4 -8 -18 -15 -33
-15 -25 1 -25 1 -7 15 26 19 47 19 40 0z m-2530 -50 c-17 -26 -34 -33 -34 -14
0 12 29 38 43 39 4 0 0 -11 -9 -25z m4394 0 c-8 -17 -15 -22 -21 -16 -7 7 -6
15 3 26 20 24 31 18 18 -10z m-1747 -26 c-9 -22 -10 -22 -10 -3 -1 11 2 24 6
27 12 12 14 0 4 -24z m1403 -30 c10 -53 7 -69 -13 -69 -24 0 -37 50 -21 79 15
30 27 26 34 -10z m-3961 -12 c42 -5 77 -13 77 -16 -1 -3 -15 -15 -33 -26 -17
-11 -37 -31 -44 -45 -10 -21 -9 -27 5 -43 35 -39 69 -48 163 -45 71 2 92 -1
99 -12 15 -23 12 -30 -12 -30 -12 0 -30 -8 -40 -17 -17 -16 -30 -14 -220 30
-110 25 -211 53 -225 62 -26 17 -25 44 3 76 9 10 12 27 8 47 -4 22 -3 32 5 32
7 0 9 -5 5 -11 -8 -13 54 -68 79 -69 14 0 17 9 17 46 0 40 2 45 18 38 9 -4 52
-12 95 -17z m5008 -24 c4 -42 10 -70 22 -97 9 -17 22 -49 32 -71 9 -22 25 -49
36 -61 24 -25 10 -41 -20 -24 -24 12 -93 13 -107 1 -10 -10 -116 -42 -122 -37
-1 2 5 20 14 39 14 30 15 41 5 63 -10 22 -17 26 -46 22 l-35 -4 0 54 c0 40 3
51 13 45 6 -4 20 -6 30 -5 10 2 31 -8 47 -22 39 -32 67 -41 85 -26 17 14 20
82 5 111 -9 16 -7 19 15 19 14 0 25 -3 26 -7z m-861 -23 c0 -5 -4 -10 -10 -10
-5 0 -10 5 -10 10 0 6 5 10 10 10 6 0 10 -4 10 -10z m288 -10 c3 -7 0 -10 -6
-7 -5 4 -24 2 -41 -4 -44 -15 -52 -3 -10 15 38 17 51 16 57 -4z m-1751 -5
c-11 -7 -26 -11 -35 -7 -15 6 0 12 48 20 3 1 -3 -5 -13 -13z m-3617 -9 c0 -24
-26 -38 -40 -21 -7 8 -19 15 -26 15 -8 0 -14 5 -14 10 0 6 18 10 40 10 27 0
40 -4 40 -14z m2880 -16 c13 -9 13 -10 0 -9 -8 0 -24 4 -35 9 l-20 9 20 0 c11
0 27 -4 35 -9z m-2300 -34 c0 -10 -9 -13 -27 -11 -16 2 -35 4 -43 5 -8 1 -4 6
10 10 40 13 60 11 60 -4z m700 -40 c0 -79 -18 -98 -38 -41 -11 29 -11 38 4 60
24 36 34 31 34 -19z m3570 14 c0 -5 -2 -10 -4 -10 -3 0 -8 5 -11 10 -3 6 -1
10 4 10 6 0 11 -4 11 -10z m198 -37 c-16 -19 -25 -16 -30 12 -7 32 0 37 22 17
14 -12 17 -19 8 -29z m-5992 0 c4 -16 1 -30 -9 -40 -13 -14 -16 -13 -21 5 -4
12 -16 24 -27 27 -15 5 -17 10 -9 24 14 27 58 16 66 -16z m1074 7 c-19 -12
-40 -13 -40 0 0 5 8 13 18 19 22 13 44 -5 22 -19z m3395 11 c-6 -5 -26 -12
-45 -16 -31 -7 -33 -6 -21 9 7 9 27 16 44 16 19 0 27 -4 22 -9z m322 -23 c-3
-8 -6 -5 -6 6 -1 11 2 17 5 13 3 -3 4 -12 1 -19z m1272 -29 c-8 -5 -25 -9 -38
-9 -23 0 -24 1 -6 20 14 15 22 17 38 9 16 -9 17 -13 6 -20z m376 21 c3 -5 -1
-10 -9 -10 -9 0 -16 5 -16 10 0 6 4 10 9 10 6 0 13 -4 16 -10z m-6237 -28 c4
-25 -19 -30 -37 -9 -8 10 -7 17 1 25 17 17 32 10 36 -16z m6022 12 c19 -1 52
-2 72 -3 36 -1 37 -2 27 -25 -9 -19 -8 -31 5 -57 19 -38 20 -47 4 -31 -19 19
-38 14 -48 -14 -8 -20 -6 -36 10 -71 11 -26 19 -47 17 -49 -1 -2 -33 6 -70 18
-85 26 -96 19 -92 -58 2 -47 0 -54 -15 -54 -10 0 -25 -6 -32 -13 -32 -31 -72
-48 -125 -53 l-56 -6 6 35 c3 21 1 37 -5 39 -7 3 -7 20 1 56 6 29 11 69 11 87
0 37 15 45 39 23 11 -10 14 -10 18 0 3 6 13 12 24 12 10 0 24 9 31 19 9 14 16
17 24 10 18 -15 54 7 54 31 0 17 7 20 43 20 24 0 46 3 50 6 11 11 -14 60 -41
78 -15 10 -18 14 -7 10 11 -4 36 -9 55 -10z m-6271 -26 c0 -28 -2 -30 -9 -13
-12 28 -12 45 0 45 6 0 10 -15 9 -32z m4508 -48 c54 -11 113 -20 131 -20 20 0
31 -4 27 -10 -4 -6 -10 -8 -15 -5 -5 3 -11 1 -14 -4 -11 -17 7 -43 38 -57 30
-13 27 -13 -46 -14 -45 0 -78 -4 -78 -10 0 -5 -15 -10 -33 -10 -25 0 -36 6
-50 29 -9 16 -32 42 -50 58 -18 16 -32 34 -30 40 2 6 -1 14 -6 18 -20 12 -12
26 9 15 10 -5 63 -19 117 -30z m-4152 20 c4 -6 -6 -10 -22 -10 -22 0 -25 2
-13 10 19 12 27 12 35 0z m1560 -49 c104 -23 193 -45 197 -49 5 -5 -3 -18 -16
-31 -22 -21 -27 -21 -67 -10 -82 23 -120 3 -102 -55 l11 -34 -42 15 c-22 8
-117 41 -211 73 -93 32 -171 64 -173 69 -2 7 13 11 38 11 35 0 43 4 58 31 16
29 19 30 67 26 28 -3 135 -24 240 -46z m2435 39 c13 -9 13 -10 0 -10 -8 0 -22
5 -30 10 -13 9 -13 10 0 10 8 0 22 -5 30 -10z m-3705 -20 c7 -12 -2 -12 -30 0
-19 8 -19 9 2 9 12 1 25 -3 28 -9z m4125 -26 c0 -2 -7 -4 -15 -4 -8 0 -15 4
-15 10 0 5 7 7 15 4 8 -4 15 -8 15 -10z m220 6 c0 -5 -7 -10 -16 -10 -8 0 -12
5 -9 10 3 6 10 10 16 10 5 0 9 -4 9 -10z m767 -64 c12 -13 26 -33 32 -44 10
-18 6 -20 -40 -24 -57 -6 -83 -29 -46 -40 33 -9 105 -47 112 -58 3 -5 0 -19
-7 -30 -11 -19 -10 -24 12 -42 23 -19 24 -21 7 -33 -32 -23 -507 -140 -687
-170 -158 -25 -202 -19 -214 30 -4 16 -21 32 -46 45 -36 18 -41 19 -46 5 -4
-10 3 -26 16 -40 13 -14 20 -28 17 -32 -7 -6 -75 13 -197 54 -25 9 -54 25 -66
37 -52 53 -78 70 -156 102 -90 36 -89 37 39 39 44 1 77 6 88 15 23 19 416 22
422 3 8 -23 48 -76 68 -89 17 -11 24 -9 48 10 17 13 29 34 31 52 3 29 4 29 81
36 88 8 170 42 262 108 64 45 70 47 112 23 29 -17 32 -17 66 1 19 11 35 24 35
31 0 12 20 35 30 35 4 0 16 -11 27 -24z m683 3 c0 -6 -4 -7 -10 -4 -5 3 -10
11 -10 16 0 6 5 7 10 4 6 -3 10 -11 10 -16z m-2229 -51 c6 -11 6 -18 1 -18
-13 0 -28 21 -36 50 -7 24 -7 25 9 5 9 -11 21 -28 26 -37z m-514 -44 c-14 -40
-31 -51 -57 -34 -12 8 -8 16 25 50 45 46 52 42 32 -16z m-987 -4 c-14 -11 -36
-20 -50 -19 l-25 0 24 19 c13 11 35 20 50 20 l26 0 -25 -20z m-1425 -28 c-11
-2 -24 -8 -29 -13 -18 -17 -36 -9 -36 15 0 23 1 24 43 13 29 -8 36 -12 22 -15z
m-3508 -4 c-35 -8 -52 -7 -60 1 -8 8 5 11 49 10 l59 -1 -48 -10z m4253 -8 c0
-5 -7 -7 -15 -4 -8 4 -15 8 -15 10 0 2 7 4 15 4 8 0 15 -4 15 -10z m90 0 c0
-5 6 -9 13 -7 15 3 16 -25 1 -30 -6 -2 -19 8 -28 22 -14 22 -15 25 -1 25 8 0
15 -4 15 -10z m5774 1 c3 -5 -3 -20 -13 -32 -23 -29 -44 -16 -30 19 8 22 33
30 43 13z m-10423 -40 c21 -19 19 -60 -4 -88 -18 -24 -23 -13 -22 47 0 33 1
60 3 60 2 0 12 -8 23 -19z m5823 -66 c-9 -51 -9 -85 0 -110 l8 -20 -16 20 c-9
11 -31 40 -49 63 -17 24 -47 61 -64 82 -18 20 -33 40 -33 43 0 2 36 -5 81 -17
l81 -21 -8 -40z m-664 -67 c0 -3 -9 -4 -19 -1 -18 4 -42 67 -41 105 1 12 58
-89 60 -104z m-5300 56 c0 -8 -4 -14 -10 -14 -5 0 -10 9 -10 21 0 11 5 17 10
14 6 -3 10 -13 10 -21z m6160 1 c0 -31 -7 -31 -45 0 l-30 25 38 0 c33 0 37 -3
37 -25z m-367 -29 c31 -21 57 -46 57 -55 0 -9 8 -27 17 -40 l16 -24 -129 6
c-169 8 -171 9 -171 57 0 22 -8 51 -17 64 -9 14 -16 27 -16 28 0 2 42 3 93 3
90 -1 93 -1 150 -39z m4937 34 c0 -6 -12 -16 -26 -22 -21 -10 -27 -9 -34 3 -7
11 -2 15 23 20 17 4 33 7 35 8 1 0 2 -4 2 -9z m-4469 -43 c-11 -18 -31 -42
-43 -53 -12 -10 -18 -12 -12 -4 5 8 23 34 38 58 34 49 48 49 17 -1z m-6164
-42 c-4 -8 -11 -15 -17 -15 -7 0 -7 6 0 21 13 23 26 19 17 -6z m379 -30 c10
-8 14 -15 8 -15 -5 0 -19 7 -30 15 -10 8 -14 15 -8 15 5 0 19 -7 30 -15z
m8694 -25 c0 -5 -9 -10 -19 -10 -10 0 -21 -7 -25 -15 -8 -21 -26 -19 -26 4 0
14 8 21 28 24 15 2 30 5 35 6 4 0 7 -3 7 -9z m-8915 -61 c0 -8 -12 -15 -30
-17 -30 -4 -30 -4 -11 17 21 23 41 23 41 0z m8795 -14 c-55 -30 -70 -31 -70
-6 0 16 8 21 48 24 26 2 52 4 57 5 6 0 -10 -10 -35 -23z m-7750 -10 c-7 -9
-15 -13 -17 -11 -7 7 7 26 19 26 6 0 6 -6 -2 -15z m-1008 -47 c-6 -6 -15 -8
-19 -4 -4 4 -1 11 7 16 19 12 27 3 12 -12z m8770 -13 c2 -19 2 -35 1 -35 -2 0
-15 12 -28 27 -25 30 -24 43 4 43 14 0 20 -9 23 -35z m-7833 11 c9 -11 9 -19
-1 -35 -19 -30 -28 -26 -28 14 0 37 10 44 29 21z m-971 -28 c-7 -20 -58 -23
-58 -4 0 11 10 16 31 16 20 0 29 -4 27 -12z m165 -24 c20 -3 37 -10 37 -14 0
-7 -57 -20 -91 -20 -9 0 -19 9 -22 19 -6 24 1 33 22 27 9 -3 33 -8 54 -12z
m617 -4 c0 -21 -8 -24 -34 -14 -25 10 -19 34 9 34 18 0 25 -5 25 -20z m230 16
c0 -3 -4 -8 -10 -11 -5 -3 -10 -1 -10 4 0 6 5 11 10 11 6 0 10 -2 10 -4z
m4900 -28 c0 -6 -6 -5 -15 2 -8 7 -15 14 -15 16 0 2 7 1 15 -2 8 -4 15 -11 15
-16z m-4772 -113 c-23 -36 -47 -65 -53 -65 -27 0 -23 15 10 37 34 23 53 62 40
82 -4 7 4 11 19 11 l25 0 -41 -65z m-91 47 c14 -9 6 -52 -9 -52 -5 0 -6 9 -3
20 5 14 2 20 -10 20 -9 0 -13 5 -10 10 7 12 16 12 32 2z m-217 -42 c0 -5 -4
-10 -9 -10 -6 0 -13 5 -16 10 -3 6 1 10 9 10 9 0 16 -4 16 -10z m6657 -165 c9
-25 -4 -29 -17 -6 -7 15 -7 21 0 21 6 0 13 -7 17 -15z m-1632 -43 c-3 -3 -11
0 -18 7 -9 10 -8 11 6 5 10 -3 15 -9 12 -12z m1765 -128 c23 -9 39 -18 37 -20
-2 -3 -24 4 -48 15 -54 24 -45 27 11 5z m-8808 -59 c16 -14 25 -25 19 -25 -17
0 -81 33 -81 42 0 16 33 7 62 -17z m-32 -49 c-12 -12 -41 1 -48 22 -3 9 4 9
28 0 23 -8 29 -13 20 -22z m120 14 c0 -5 -4 -10 -10 -10 -5 0 -10 5 -10 10 0
6 5 10 10 10 6 0 10 -4 10 -10z m-203 -60 c-9 -23 -14 -27 -28 -20 -20 11 -30
55 -16 69 6 6 17 5 32 -5 20 -13 22 -18 12 -44z m253 -189 c0 -5 -9 -11 -20
-14 -20 -5 -26 3 -13 16 9 10 33 8 33 -2z"/>
<path d="M12789 2383 c-7 -42 -6 -104 1 -108 6 -4 10 19 10 54 0 34 -2 61 -5
61 -3 0 -6 -3 -6 -7z"/>
<path d="M5768 2203 c6 -2 18 -2 25 0 6 3 1 5 -13 5 -14 0 -19 -2 -12 -5z"/>
</g>
</svg>
